<?xml version="1.0" encoding="utf-8" standalone="yes"?>
<!DOCTYPE svg PUBLIC "-//W3C//DTD SVG 1.1//EN" "http://www.w3.org/Graphics/SVG/1.1/DTD/svg11.dtd">
<svg xmlns="http://www.w3.org/2000/svg" xmlns:xlink="http://www.w3.org/1999/xlink" xmlns:dc="http://purl.org/dc/elements/1.1/" xmlns:cc="http://web.resource.org/cc/" xmlns:rdf="http://www.w3.org/1999/02/22-rdf-syntax-ns#" xmlns:sodipodi="http://sodipodi.sourceforge.net/DTD/sodipodi-0.dtd" xmlns:inkscape="http://www.inkscape.org/namespaces/inkscape" version="1.1" baseProfile="full" width="256px" height="256px" viewBox="0 0 256 256" preserveAspectRatio="xMidYMid meet" id="svg_document" style="zoom: 2;"><title id="svg_document_title">Untitled.svg</title><defs id="svg_document_defs"></defs><g id="main_group"><polygon points="203.5,274.5 203.5,303 231.5,274.5 " stroke="none" stroke-width="nonepx" fill="#000000" transform="rotate(180 187 188.75)" id="polygon6"></polygon></g><rect stroke="none" x="61.5px" height="28.5px" y="40px" id="rect1" stroke-width="0px" width="140px" fill="#000000" transform=""></rect><rect stroke="none" x="30.5px" height="28.5px" y="177.5px" stroke-width="0px" id="rect6" width="140px" fill="#000000" transform=""></rect><rect stroke="none" x="93px" height="28.5px" y="71.5px" stroke-width="0px" id="rect4" width="49px" fill="#000000" transform=""></rect><rect stroke="none" x="90.5px" height="28.5px" y="146.25px" stroke-width="0px" id="rect8" width="48.75px" fill="#000000" transform=""></rect><rect stroke="none" height="103.5px" x="61.5px" y="40px" id="rect2" stroke-width="0px" width="28.5px" fill="#000000" transform=""></rect><rect stroke="none" height="103px" x="142px" y="103px" stroke-width="0px" id="rect5" width="28.5px" fill="#000000" transform=""></rect><rect stroke="none" height="133px" x="173px" y="41.5px" stroke-width="0px" id="rect3" width="28.5px" fill="#000000" transform=""></rect><rect stroke="none" height="108.5px" x="30.5px" y="71.5px" stroke-width="0px" id="rect7" width="28.5px" fill="#000000" transform=""></rect><polygon points="173,174.5 173,203 201,174.5" stroke="none" id="polygon1" stroke-width="nonepx" fill="#000000" transform=""></polygon><polygon points="315,306 315,334.5 343.25,306" stroke="none" stroke-width="nonepx" id="polygon4" fill="#000000" transform="rotate(180 187 188.75)"></polygon><polygon points="283.5,202.75 283.5,231.25 311.5,202.75 " stroke="none" stroke-width="nonepx" id="polygon5" fill="#000000" transform="rotate(180 187 188.75)"></polygon><polygon points="141.5,71.5 141.5,100.3 169.5,71.5" stroke="none" stroke-width="nonepx" id="polygon2" fill="#000000" transform=""></polygon><polygon points="61.5,143 61.5,171.5 90.25,143" stroke="none" stroke-width="nonepx" id="polygon3" fill="#000000" transform=""></polygon></svg>